<svg width="48" height="48" viewBox="0 0 48 48" fill="none" xmlns="http://www.w3.org/2000/svg">
<path d="M16 30.5V28H17.5V30.5H16ZM27 28H28.5V36H27V28Z" fill="#FF0D11"/>
<path d="M30.828 2H6V46H42V34.5H38V40H34V27C34 26.2044 34.3161 25.4413 34.8787 24.8787C35.4413 24.3161 36.2044 24 37 24H42V25.778V13.172L30.828 2ZM29 15V6L38 15H29ZM18.5 34.5H16V40H12V24H18.5C19.2956 24 20.0587 24.3161 20.6213 24.8787C21.1839 25.4413 21.5 26.2044 21.5 27V31.5C21.5 32.2956 21.1839 33.0587 20.6213 33.6213C20.0587 34.1839 19.2956 34.5 18.5 34.5ZM32.5 27V37C32.5 37.7957 32.1839 38.5587 31.6213 39.1213C31.0587 39.6839 30.2956 40 29.5 40H23V24H29.5C30.2956 24 31.0587 24.3161 31.6213 24.8787C32.1839 25.4413 32.5 26.2044 32.5 27Z" fill="#E52237"/>
<path d="M42 28H38V30.5H42V28Z" fill="#FF0D11"/>
</svg>
